<?xml version="1.0" standalone="no"?>
<!DOCTYPE svg PUBLIC "-//W3C//DTD SVG 20010904//EN"
 "http://www.w3.org/TR/2001/REC-SVG-20010904/DTD/svg10.dtd">
<svg version="1.0" xmlns="http://www.w3.org/2000/svg"
 width="300.000000pt" height="234.000000pt" viewBox="0 0 300.000000 234.000000"
 preserveAspectRatio="xMidYMid meet">
<metadata>
Created by potrace 1.10, written by Peter Selinger 2001-2011
</metadata>
<g transform="translate(0.000000,234.000000) scale(0.100000,-0.100000)"
fill="#000000" stroke="none">
<path d="M2635 1490 c-11 -4 -90 -24 -175 -45 -464 -111 -535 -131 -535 -145
0 -8 11 -17 25 -20 44 -10 28 -32 -43 -55 -64 -20 -96 -39 -86 -49 7 -7 408
72 514 101 49 13 117 37 151 53 67 33 159 109 169 141 8 26 5 29 -20 19z m-75
-69 c0 -10 -69 -53 -140 -87 -58 -27 -182 -64 -234 -70 -23 -2 -51 -6 -63 -8
-11 -3 -41 -8 -66 -11 -41 -6 -45 -5 -50 17 -4 12 -7 25 -7 28 0 3 26 14 58
24 31 10 68 22 82 26 36 12 67 19 245 55 189 39 175 37 175 26z"/>
<path d="M370 1480 c0 -21 97 -106 157 -138 93 -49 159 -69 342 -103 91 -16
206 -39 254 -51 49 -11 90 -18 92 -16 12 12 -21 33 -81 52 -75 25 -89 41 -49
56 33 13 28 32 -11 41 -16 4 -96 25 -179 47 -82 23 -166 44 -185 47 -19 3 -48
10 -65 15 -35 11 -253 60 -266 60 -5 0 -9 -5 -9 -10z m275 -80 c83 -17 168
-37 190 -45 22 -8 50 -14 62 -15 12 0 24 -4 27 -9 3 -4 23 -11 44 -14 52 -9
73 -26 66 -55 -5 -19 -11 -22 -33 -17 -40 9 -70 13 -146 20 -73 7 -191 40
-201 56 -3 5 -16 9 -29 9 -13 0 -26 4 -30 10 -3 5 -32 23 -65 41 -33 17 -57
35 -54 40 7 12 0 13 169 -21z"/>
<path d="M1391 1419 c19 -19 20 -30 17 -185 -2 -90 0 -164 5 -164 4 0 7 6 7
13 0 6 1 85 1 174 l1 162 30 6 c16 4 32 5 35 2 2 -3 4 -81 3 -172 0 -119 3
-171 11 -182 11 -13 1 -14 -87 -9 -118 7 -718 24 -722 21 -10 -9 16 -35 53
-54 64 -32 162 -44 292 -38 126 7 327 33 358 47 11 5 70 10 130 12 102 3 113
6 153 33 56 37 82 88 82 159 0 92 -30 143 -105 177 -32 15 -65 19 -162 19
l-123 0 21 -21z m212 -9 c43 -34 64 -134 48 -226 -9 -47 -18 -66 -46 -91 -36
-34 -72 -42 -93 -21 -8 8 -12 61 -12 173 0 112 4 165 12 173 18 18 62 14 91
-8z m111 -69 c49 -94 8 -235 -76 -264 -20 -7 -25 8 -7 19 34 21 54 130 39 214
-6 33 -8 65 -5 71 9 13 32 -6 49 -40z m-576 -287 c64 -8 61 -15 -10 -23 -135
-15 -371 2 -248 19 72 9 200 11 258 4z"/>
<path d="M2305 1240 c-104 -20 -255 -50 -335 -65 -80 -15 -162 -34 -182 -42
-76 -30 -44 -36 165 -29 267 9 355 20 432 55 92 42 176 124 122 120 -7 0 -97
-18 -202 -39z m105 -26 c0 -8 -97 -52 -125 -57 -17 -3 -57 -11 -90 -17 -67
-12 -255 -11 -255 2 0 4 3 8 8 9 4 0 16 3 27 5 11 2 40 7 65 10 25 3 59 9 75
14 17 5 59 12 95 15 36 4 81 10 100 14 39 8 100 11 100 5z"/>
<path d="M510 1260 c0 -16 103 -87 158 -109 61 -24 174 -37 397 -46 88 -3 175
-8 193 -12 41 -7 43 11 3 32 -31 16 -193 51 -456 99 -11 2 -69 14 -128 25
-118 23 -167 26 -167 11z m235 -50 c119 -17 128 -19 193 -35 34 -9 71 -17 82
-18 11 -1 20 -6 20 -12 0 -16 -114 -15 -228 1 -93 14 -145 34 -181 70 -7 7 39
4 114 -6z"/>
<path d="M2215 1085 c-5 -2 -122 -6 -260 -8 -183 -2 -257 -7 -278 -17 -46 -22
-25 -35 69 -41 49 -4 121 -12 159 -18 104 -16 242 -14 306 5 133 40 172 85 72
83 -32 0 -62 -2 -68 -4z m-87 -31 c113 -10 58 -34 -83 -35 -76 -1 -155 10
-155 20 0 24 89 30 238 15z"/>
<path d="M1610 943 c-8 -2 -21 -7 -29 -9 -11 -4 -12 -7 -3 -16 16 -16 16 -180
0 -196 -9 -9 -1 -12 35 -12 46 0 47 1 36 21 -7 14 -10 58 -8 117 4 95 0 106
-31 95z m18 -121 c2 -84 0 -102 -12 -102 -12 0 -15 21 -18 105 -3 90 -1 105
12 103 12 -3 16 -24 18 -106z"/>
<path d="M995 820 l0 -110 68 0 c100 0 147 36 147 112 0 52 -49 108 -96 108
-11 0 -10 -7 8 -30 45 -61 20 -180 -38 -180 l-26 0 4 105 3 105 -35 0 -35 0 0
-110z m45 0 c0 -53 -4 -90 -10 -90 -6 0 -10 37 -10 90 0 53 4 90 10 90 6 0 10
-37 10 -90z m150 6 c0 -18 -6 -41 -14 -51 -12 -16 -13 -13 -13 31 0 27 -3 60
-6 74 l-6 25 19 -24 c11 -13 20 -38 20 -55z"/>
<path d="M1214 915 c-3 -8 1 -24 9 -36 l15 -21 12 22 c6 12 9 28 6 36 -7 18
-35 18 -42 -1z"/>
<path d="M1275 820 l0 -110 35 0 35 0 0 110 0 110 -35 0 -35 0 0 -110z m45 5
c0 -52 -4 -95 -9 -95 -9 0 -22 170 -14 182 15 26 23 -4 23 -87z"/>
<path d="M1393 912 c23 -25 21 -58 -4 -83 -28 -28 -19 -33 25 -15 72 30 63
116 -12 116 -24 0 -24 -1 -9 -18z m54 -53 c-17 -27 -27 -23 -27 9 0 37 11 48
27 26 9 -12 9 -20 0 -35z"/>
<path d="M1520 921 c-31 -9 -38 -38 -13 -56 17 -14 17 -14 -4 -15 -20 0 -21
-4 -16 -55 4 -37 2 -60 -7 -70 -11 -13 -6 -15 35 -15 37 0 45 3 37 13 -15 17
-17 145 -3 180 11 29 10 29 -29 18z m10 -141 c0 -45 -4 -60 -14 -60 -10 0 -15
17 -18 60 -3 52 -1 60 15 60 14 0 17 -10 17 -60z"/>
<path d="M1888 889 c-15 -8 -18 -24 -18 -82 0 -78 9 -97 47 -97 20 0 21 3 13
24 -5 13 -6 56 -3 95 6 75 0 83 -39 60z m19 -84 c-1 -36 -5 -65 -8 -65 -15 0
-25 110 -12 123 16 17 21 3 20 -58z"/>
<path d="M1696 839 c-34 -27 -36 -79 -4 -109 26 -24 68 -29 48 -5 -13 16 -16
70 -5 104 15 47 55 11 55 -49 0 -17 -5 -40 -10 -51 -16 -29 15 -25 47 7 49 49
8 124 -67 124 -23 0 -48 -8 -64 -21z m17 -58 c2 -37 -9 -48 -25 -26 -12 15 -9
50 4 63 16 16 20 10 21 -37z m115 13 c1 -10 -4 -28 -11 -39 -13 -17 -15 -16
-15 24 -1 28 3 41 11 38 7 -2 13 -12 15 -23z"/>
<path d="M1993 850 c-16 -6 -23 -18 -23 -35 0 -21 9 -29 56 -50 56 -25 64 -45
17 -45 -16 0 -27 7 -30 20 -6 24 -16 25 -34 4 -18 -22 4 -34 67 -34 41 0 55 5
73 24 l23 25 -26 24 c-23 21 -24 26 -11 37 37 31 -51 54 -112 30z m71 -6 c9
-3 16 -13 16 -21 0 -12 -7 -14 -27 -8 -34 8 -37 11 -28 24 7 12 17 14 39 5z
m-6 -50 c35 -7 59 -28 43 -38 -5 -3 -24 1 -43 11 -18 9 -40 19 -48 23 -8 4
-17 16 -19 26 -3 18 -2 18 16 2 11 -10 34 -21 51 -24z"/>
</g>
</svg>
