<?xml version="1.0" standalone="no"?>
<!DOCTYPE svg PUBLIC "-//W3C//DTD SVG 20010904//EN"
 "http://www.w3.org/TR/2001/REC-SVG-20010904/DTD/svg10.dtd">
<svg version="1.0" xmlns="http://www.w3.org/2000/svg"
 width="225.000000pt" height="225.000000pt" viewBox="0 0 225.000000 225.000000"
 preserveAspectRatio="xMidYMid meet">
<metadata>
Created by potrace 1.10, written by Peter Selinger 2001-2011
</metadata>
<g transform="translate(0.000000,225.000000) scale(0.100000,-0.100000)"
fill="#000000" stroke="none">
<path d="M890 2220 c-443 -94 -787 -450 -865 -894 -19 -109 -19 -295 0 -398
40 -226 149 -433 315 -597 134 -133 318 -237 507 -288 89 -24 115 -26 278 -26
163 0 189 2 280 26 132 35 316 128 420 211 189 152 318 354 387 604 19 66 22
104 22 267 0 174 -3 198 -26 287 -112 415 -452 734 -868 812 -115 22 -339 20
-450 -4z m371 -16 c310 -53 553 -195 724 -422 244 -325 290 -750 121 -1108
-59 -123 -114 -203 -210 -302 -158 -164 -373 -276 -603 -317 -120 -20 -231
-19 -352 5 -231 47 -403 135 -565 290 -255 245 -380 610 -322 940 30 169 79
296 170 435 162 249 422 415 741 475 127 23 179 24 296 4z"/>
<path d="M1268 1937 c-16 -6 -28 -14 -28 -19 0 -4 -6 -8 -14 -8 -8 0 -16 -3
-18 -7 -5 -12 -78 -65 -78 -57 0 4 -10 -4 -23 -17 -12 -13 -39 -33 -60 -44
-20 -11 -37 -23 -37 -27 0 -5 -5 -8 -11 -8 -6 0 -16 -6 -24 -12 -27 -26 -55
-48 -63 -48 -4 0 -29 -18 -57 -40 -27 -22 -55 -40 -62 -40 -6 0 -13 -4 -15 -8
-2 -5 -33 -29 -70 -55 -108 -75 -134 -99 -177 -162 -48 -72 -64 -135 -57 -233
7 -107 7 -112 18 -112 4 0 8 -9 8 -20 0 -11 5 -20 10 -20 6 0 10 -7 10 -16 0
-20 115 -134 135 -134 8 0 15 -5 15 -12 0 -6 3 -9 6 -5 3 3 29 -3 58 -15 42
-17 66 -19 136 -15 71 4 96 10 150 38 36 19 67 36 70 39 3 3 12 10 21 15 14 9
84 59 114 82 6 5 28 21 50 38 22 16 45 34 52 40 44 37 43 37 58 21 19 -19 19
-32 -1 -40 -8 -3 -13 -9 -10 -14 2 -4 -19 -18 -47 -31 -29 -13 -59 -32 -68
-43 -9 -10 -20 -18 -24 -18 -5 0 -23 -11 -41 -25 -18 -14 -35 -25 -38 -25 -3
0 -36 -23 -73 -51 -37 -28 -81 -61 -98 -72 -78 -58 -77 -53 -73 -244 4 -201 9
-215 72 -192 20 7 36 17 36 21 0 4 6 8 14 8 8 0 16 3 18 8 4 11 177 132 187
132 5 0 11 4 13 8 3 7 53 43 223 161 44 30 86 61 93 68 7 7 17 13 21 13 4 0
24 15 45 34 20 19 40 36 44 38 10 4 55 69 69 98 33 69 44 203 22 271 -32 100
-102 192 -166 218 -18 7 -33 17 -33 22 0 5 -14 9 -31 9 -16 0 -28 4 -25 8 7
11 -49 16 -144 14 -41 -1 -76 -7 -78 -12 -2 -6 -9 -10 -15 -10 -15 0 -101 -43
-105 -52 -2 -5 -10 -8 -17 -8 -7 0 -15 -4 -17 -8 -1 -5 -32 -28 -68 -52 -36
-24 -67 -46 -70 -49 -3 -3 -25 -22 -50 -41 -25 -19 -46 -38 -48 -42 -2 -4 -8
-8 -14 -8 -10 0 -38 25 -38 34 0 9 54 56 65 56 10 0 114 66 125 79 3 3 17 12
32 20 15 8 36 22 45 31 10 8 41 31 68 50 68 46 72 50 118 93 l39 37 -4 174
c-3 124 -8 179 -17 190 -15 18 -16 18 -53 3z m51 -289 l1 -76 -212 -149 c-117
-81 -226 -152 -243 -158 -39 -13 -61 -56 -44 -87 16 -31 28 -38 66 -38 24 0
37 7 49 26 29 43 310 232 373 250 68 20 166 14 234 -15 70 -30 149 -110 183
-184 24 -52 28 -75 28 -143 0 -71 -4 -90 -31 -145 -18 -35 -47 -78 -65 -96
-18 -17 -187 -139 -374 -271 l-342 -239 -7 179 c-4 98 -6 180 -4 182 55 45
442 305 461 309 49 12 55 92 9 116 -33 18 -52 13 -85 -22 -47 -50 -291 -217
-350 -239 -114 -44 -256 -18 -351 66 -86 75 -135 199 -120 306 9 67 54 158
101 203 22 21 190 143 374 272 l335 235 6 -103 c4 -56 7 -137 8 -179z"/>
</g>
</svg>
